<?xml version="1.0" standalone="no"?>
<!DOCTYPE svg PUBLIC "-//W3C//DTD SVG 20010904//EN"
 "http://www.w3.org/TR/2001/REC-SVG-20010904/DTD/svg10.dtd">
<svg version="1.0" xmlns="http://www.w3.org/2000/svg"
 width="260.000000pt" height="260.000000pt" viewBox="0 0 260.000000 260.000000"
 preserveAspectRatio="xMidYMid meet">
<metadata>
Created by potrace 1.14, written by Peter Selinger 2001-2017
</metadata>
<g transform="translate(0.000000,260.000000) scale(0.100000,-0.100000)"
fill="#000000" stroke="none">
<path d="M2113 2350 c-13 -5 -23 -7 -23 -3 0 8 -47 -43 -67 -73 -8 -14 -17
-44 -18 -67 -2 -23 -6 -53 -10 -67 -4 -14 -8 -49 -8 -77 0 -29 -4 -53 -8 -53
-4 0 -7 -17 -7 -37 0 -21 -3 -54 -7 -73 -4 -19 -9 -53 -10 -75 -1 -22 -5 -47
-8 -55 -3 -8 -5 -28 -5 -45 0 -16 -4 -61 -8 -100 -4 -38 -7 -78 -8 -87 0 -10
-3 -18 -7 -18 -4 0 -6 -20 -5 -45 1 -25 -1 -45 -5 -45 -3 0 -6 -21 -7 -47 -1
-27 -4 -71 -8 -100 -4 -29 -3 -60 1 -70 5 -10 9 -22 9 -28 1 -5 17 -19 36 -32
19 -12 40 -27 47 -33 7 -5 21 -10 31 -10 10 0 22 -3 26 -7 4 -5 26 -13 49 -18
l42 -11 3 -447 2 -447 25 0 c13 0 27 5 30 10 3 6 6 492 6 1081 0 877 -2 1073
-13 1080 -17 11 -47 10 -75 -1z m27 -630 l0 -570 -23 0 c-13 0 -37 6 -53 14
-16 7 -43 20 -61 27 -17 7 -34 21 -36 30 -9 34 8 269 19 278 5 3 10 26 11 51
1 25 4 74 7 110 4 36 7 81 9 101 1 20 8 43 15 52 7 9 15 46 18 84 11 157 15
190 25 213 1 3 3 25 4 50 2 25 3 53 4 63 1 15 46 67 57 67 2 0 4 -256 4 -570z"/>
<path d="M463 2324 c-24 -14 -43 -30 -43 -35 0 -6 -4 -8 -9 -5 -5 3 -17 -6
-27 -21 -11 -14 -27 -33 -36 -42 -10 -8 -18 -21 -18 -28 0 -11 -26 -75 -51
-125 -5 -9 -9 -76 -10 -148 -1 -129 0 -132 32 -198 32 -63 42 -79 79 -121 21
-23 66 -51 85 -51 8 0 15 -5 15 -11 0 -5 5 -7 10 -4 6 4 17 2 24 -4 11 -9 13
-135 14 -664 0 -358 1 -659 1 -669 1 -10 8 -15 19 -13 9 2 22 4 28 4 8 1 11
189 12 644 1 353 1 652 2 664 0 17 10 27 37 38 21 9 45 17 53 18 32 5 114 91
122 128 2 8 9 19 16 24 7 6 14 17 16 25 1 8 8 26 16 40 15 27 24 240 11 240
-7 0 -32 94 -32 117 0 5 -8 16 -16 26 -9 9 -13 17 -9 17 11 0 -47 82 -83 117
-19 18 -40 33 -46 33 -7 0 -18 7 -25 15 -9 11 -32 15 -79 15 -53 0 -74 -5
-108 -26z m193 -59 c48 -39 101 -95 89 -95 -2 0 7 -25 20 -55 33 -74 38 -103
39 -215 1 -86 -2 -101 -29 -155 -16 -33 -38 -70 -49 -82 -12 -12 -26 -28 -33
-35 -31 -33 -42 -37 -120 -42 -68 -4 -143 30 -143 65 0 7 -3 9 -7 6 -9 -9 -53
33 -53 50 0 7 -9 33 -21 58 -18 39 -20 58 -16 172 4 151 25 213 98 288 53 56
67 62 140 63 44 0 63 -5 85 -23z"/>
<path d="M1121 2331 c-12 -8 -14 -50 -13 -233 2 -241 4 -287 18 -309 4 -8 10
-23 12 -34 1 -11 12 -36 23 -55 11 -19 25 -47 31 -61 6 -15 25 -34 40 -44 16
-9 27 -19 24 -22 -7 -8 36 -41 76 -57 l33 -14 0 -654 c-1 -374 3 -656 8 -659
13 -9 47 1 48 15 1 6 3 297 4 646 1 349 3 640 4 646 0 6 18 16 39 22 22 7 51
23 65 36 14 13 28 21 31 18 3 -3 6 2 6 11 0 9 4 17 9 17 5 0 13 10 17 22 4 13
13 27 21 33 7 6 16 23 19 39 2 15 11 35 19 43 9 8 13 18 10 23 -3 4 1 27 8 51
14 49 17 495 3 517 -9 16 -36 16 -38 0 0 -7 -3 -112 -4 -233 -3 -234 -9 -306
-26 -316 -5 -3 -9 -10 -9 -15 2 -21 -14 -52 -46 -91 -19 -24 -31 -43 -26 -43
4 0 -8 -10 -27 -23 -29 -20 -47 -23 -102 -22 -75 2 -83 6 -135 79 -21 28 -41
53 -45 54 -5 2 -8 7 -8 12 0 4 -7 25 -16 46 -14 33 -17 78 -16 284 0 135 -2
253 -5 263 -5 18 -29 22 -52 8z"/>
<path d="M1297 2333 c-3 -5 -5 -66 -5 -136 0 -103 3 -130 15 -134 8 -3 19 -1
25 5 12 12 17 223 6 253 -7 19 -33 26 -41 12z"/>
<path d="M1464 2328 c-4 -6 -7 -66 -7 -132 0 -96 3 -122 15 -130 8 -5 22 -7
30 -3 13 4 16 27 16 119 0 62 -1 123 -4 136 -5 24 -37 31 -50 10z"/>
</g>
</svg>
